<?xml version="1.0" standalone="no"?><!DOCTYPE svg PUBLIC "-//W3C//DTD SVG 1.1//EN" "http://www.w3.org/Graphics/SVG/1.1/DTD/svg11.dtd"><svg t="1559210271080" class="icon" style="" viewBox="0 0 1024 1024" version="1.1" xmlns="http://www.w3.org/2000/svg" p-id="5156" xmlns:xlink="http://www.w3.org/1999/xlink" width="200" height="200"><defs><style type="text/css"></style></defs><path d="M176.128 250.688l672 0 0 336-672 0 0-336Z" p-id="5157"></path><path d="M885.312 138.688 138.688 138.688C97.536 138.688 64 172.224 64 213.312L64 624c0 41.024 33.536 74.624 74.688 74.624l298.624 0 0 149.376L400 848c-37.312 0-37.312 37.376-37.312 37.376l298.624 0c0-37.376-37.312-37.376-37.312-37.376L586.688 848l0-149.376 298.624 0c41.088 0 74.688-33.6 74.688-74.624L960 213.312C960 172.224 926.4 138.688 885.312 138.688zM885.312 624 138.688 624 138.688 213.312l746.624 0L885.312 624z" p-id="5158"></path></svg>