<?xml version="1.0" standalone="no"?><!DOCTYPE svg PUBLIC "-//W3C//DTD SVG 1.1//EN" "http://www.w3.org/Graphics/SVG/1.1/DTD/svg11.dtd"><svg t="1559209132353" class="icon" style="" viewBox="0 0 1024 1024" version="1.1" xmlns="http://www.w3.org/2000/svg" p-id="2037" xmlns:xlink="http://www.w3.org/1999/xlink" width="200" height="200"><defs><style type="text/css"></style></defs><path d="M391.428571 276q9.142857 0 15.714286-6.571429T413.714286 253.714286t-6.571429-15.714286T391.428571 231.428571t-15.428571 6.571429-6.285714 15.714286 6.285714 15.714285 15.428571 6.571429z m241.142858 0q9.142857 0 15.428571-6.571429t6.285714-15.714285-6.285714-15.714286-15.428571-6.571429-15.714286 6.571429T610.285714 253.714286t6.571429 15.714285T632.571429 276zM168.571429 381.142857q24 0 41.142857 17.142857t17.142857 41.142857v245.714286q0 24.571429-16.857143 41.714286t-41.428571 17.142857-41.714286-17.142857-17.142857-41.714286V439.428571q0-24 17.142857-41.142857t41.714286-17.142857z m605.714285 10.857143v380.571429q0 26.285714-18.285714 44.571428t-44 18.285714h-42.857143v129.714286q0 24.571429-17.142857 41.714286t-41.714286 17.142857-41.714285-17.142857-17.142858-41.714286v-129.714286H472.571429v129.714286q0 24.571429-17.142858 41.714286t-41.714285 17.142857q-24 0-41.142857-17.142857t-17.142858-41.714286l-0.571428-129.714286h-42.285714q-26.285714 0-44.571429-18.285714t-18.285714-44.571428V392h524.571428zM641.714286 160.571429q61.142857 31.428571 97.714285 87.714285t36.571429 123.142857H247.428571q0-66.857143 36.571429-123.142857T382.285714 160.571429l-40.571428-74.857143q-4-7.428571 2.857143-11.428572 7.428571-3.428571 11.428571 3.428572l41.142857 75.428571q54.285714-24 114.857143-24t114.857143 24l41.142857-75.428571q4-6.857143 11.428571-3.428572 6.857143 4 2.857143 11.428572z m272.571428 278.857142v245.714286q0 24.571429-17.142857 41.714286t-41.714286 17.142857q-24 0-41.142857-17.142857t-17.142857-41.714286V439.428571q0-24.571429 17.142857-41.428571t41.142857-16.857143q24.571429 0 41.714286 16.857143t17.142857 41.428571z" p-id="2038"></path></svg>
